<svg xmlns="http://www.w3.org/2000/svg" viewBox="0 0 280.1 91.47"><defs><style>.cls-1{fill:#fff;}.cls-1,.cls-2,.cls-3,.cls-4,.cls-6,.cls-7{fill-rule:evenodd;}.cls-2,.cls-5{fill:#83b445;}.cls-3{fill:#bb611e;}.cls-4{fill:#de8f1d;}.cls-6{fill:#efd1a0;}.cls-7{fill:#e9ba7e;}.cls-8{fill:#f39800;}</style></defs><title>资源 2</title><g id="图层_2" data-name="图层 2"><g id="Layer_1" data-name="Layer 1"><path class="cls-1" d="M45.73,0A45.73,45.73,0,1,1,0,45.73,45.76,45.76,0,0,1,45.73,0"/><path class="cls-2" d="M11.7,72.07A43,43,0,0,1,74,13.26l-1.75,1.33A40.93,40.93,0,1,0,82.54,28l1.78-1.36A43,43,0,0,1,11.7,72.07"/><path class="cls-3" d="M68.44,54.41c9.79-1.51,6.29-12.39,4-14.28-4.3-3.53-3.11,1-3.71-6.81-1-12.83-5.47-10.47-11.65-14.75-2.52-2-14.36-6.65-25.67,4,1.66,19.86,34.67,9.17,35.29,20.07s-4.05,10.86-8,15.69a11,11,0,0,1,2.91,2.37,9,9,0,0,0,2.05.07c3.31-.34,5.61-2.69,4.77-6.39"/><path class="cls-1" d="M44.71,28.85c-11.64.56-21.11,8.54-21.11,17.85s9.47,16.41,21.11,15.86S65.83,54,65.83,44.68,56.37,28.3,44.71,28.85"/><path class="cls-4" d="M61.33,45.58l1.26,2.06c.35-3,.35-3.76-3-5.31l-6.68-8.41-6.27,4.54c-5,3.25-7.52,3.43-17.94,2.26l.12,8.56c-1.44-3.43.16-1.26-1.6-3.48C25.56,49,32.08,57.08,36.4,59.08c7.38,4,26.68,3,24.94-13.5m-22.9,21c.19-.66.33-1.12.46-1.43l.49-1.53a31.15,31.15,0,0,0,11.8-.56l.37,5.58c-5.58,2.2-11.77,1-13.8-.1Zm28.9-12.1c9.78-1.49,6.28-12,4-13.81-4.3-3.4-3.1,1-3.72-6.62-1-12.4-4.88-10.27-11-14.41-3.06-1.49-10.29-7.49-24.88,2.73-7.8,5.26-7.8,10-7.49,18.72-9.54,4.1-2.87,15.49,9.45,19.47-3.53,2.68-8.3,10.31-9.77,14.44h1.44c1.55-4.91,5.87-11.33,9-13.83a6.72,6.72,0,0,0,1.78,1.22c-1.7,2.29-7.83,12-8.65,14.66,9.94,7.14,29,5.71,36.08.22-2.49-7.52-4.42-13-6.71-16.88a8.53,8.53,0,0,0,2.06-1.54c2.67,2.59,6.47,10.73,8.08,16.41h1.4c-1.34-4-3.85-10.43-6.77-14.53C65.22,60.63,68.22,58.27,67.33,54.51Z"/><path class="cls-5" d="M62.46,77.31c-1.52-4.75-4.22-13.5-6.72-16.29a22.67,22.67,0,0,1-3.86,1.77c.1.69.27,1.53,1,6.8-8.37,2.24-12.83,1.41-16.72-.13l2.37-6-1.74-.61a94.8,94.8,0,0,0-8.22,14.21c11.31,5.42,22.61,6.2,33.88.24"/><path class="cls-3" d="M61.61,47.66c.15.79.86,1,1.62.61,4-3.53,1.81-8.47-4.48-7.64l-5.68-7.94-5.78,4.44c-5,3.26-7.43,3.94-18.56,3.6l.12,8.56c-1.6-4.37-.71-2-2-4-1,4.37,4.08,7.66,8.66,14.94,6.62,4.85,26.53,3.1,26.09-12.53"/><path class="cls-1" d="M61.33,45.58l1.55,2C65,44,61.09,44,57.75,42.44l-4.82-8.52-6.27,4.54c-5,3.25-7.52,3.43-17.94,2.26l-.12,6.19c-.54-3-3.26-1.61-3.3-.52C24.89,48.48,27,52.51,28.91,52c2.18,4.17,4.05,6.53,7.26,8.54,6.69,4.34,26.91,1.48,25.17-15"/><path class="cls-3" d="M60.3,58a3.83,3.83,0,0,0,4.47-.77,2.79,2.79,0,0,1-2.89,1.86c.94.74,2.79.12,4.14-.68-1.86,3-6.22,1.59-5.72-.41"/><path class="cls-3" d="M68.78,53.23c2.26-2.84,3.33-5.53-.23-8.23a5.45,5.45,0,0,1,3.52,2.76c0-.65-1-3.18-2.35-3.84,5.3,2.2,3.26,7.93-.93,9.3"/><path class="cls-6" d="M61.42,47c.58,1.33,1,1.21,1.21,1.21,1.62-.29,5.37-7.64-4.36-6.87l-5.33-7.39L51.3,35.1a18.57,18.57,0,0,1,5.48,13,18.82,18.82,0,0,1-5.28,13c5.9-2.27,10.39-7.55,9.92-14.11"/><path class="cls-4" d="M47,45.73a6.06,6.06,0,0,1,7.61-.28c-1-2.14-3.56-2.77-6-1.78,2.14-2.41,3.94-1.18,5.49-.81C51,40,46.74,42.26,47,45.73"/><path class="cls-4" d="M33.34,44.5c.16-.55,2.29-2.48,4.06-.64-2.09-.16-3.46.45-4.23,1.84,2.37-1.36,3.59-1,5.76-.5.16-3.23-4.81-3.47-5.59-.7"/><path class="cls-4" d="M48.07,40.05l4.38-1.19c-1.45-.4-4.8-.17-4.38,1.19"/><path class="cls-4" d="M36.55,52.07c-.39-.33-.21-.42-.44-.6s-.74.34-.72.75c7.31,2.74,9.85,1.82,16-.78-1.16,1.71-3.49,5.28-4.81,6.39-3.23,2.67-7.07-2-8.78-3.34,1.27,2.91,6.95,7,10.37,3.21C49.28,56.47,53,51.1,53,49.85c-3.56,1.56-8.44,6-16.44,2.22"/><path class="cls-4" d="M53.76,50.35c.47-.83.33-1.63-1.35-1.13,1.06.11,1.13.2,1.35,1.13"/><path class="cls-4" d="M43,49.85c-1.29.24-2.16-.39-.25-2.67-.7,1.69-.64,1.78.25,2.67"/><path class="cls-3" d="M24.23,42.61c-2.28,2.85-3.35,5.54.2,8.26a5.4,5.4,0,0,1-3.5-2.78c.05.63,1,3.17,2.36,3.82-5.3-2.19-3.3-7.91.93-9.3"/><path class="cls-4" d="M57.72,67.42l.15.68-.44.11.1.43-.69.15-.1-.44-.43.11-.15-.68.42-.1-.08-.45.68-.16.11.44Zm-2.66,1.76-.83.19-.36-1.54.84-.21Zm1.09-.25-.84.2-.37-1.69-1.08.26L53.7,67l3.71-.86.16.67-1.81.43Z"/><path class="cls-6" d="M27.86,47.27c-.23-.06-.53,0-.35,1a1,1,0,0,1-.34-1c-.5.24,0,1.33.57,2.1-2.87-2.43-.43-4,.13-2.14"/><path class="cls-7" d="M62.28,44.22c.22-.09.52,0,.38,1a.88.88,0,0,0,.28-1c.53.19.09,1.33-.44,2.12,2.72-2.59.2-4-.22-2.12"/><path class="cls-3" d="M25.91,35.22c-.71,2-.8,3.9,1.66,5.45A3.87,3.87,0,0,1,25.14,39a5.53,5.53,0,0,0,2,2.42c-3.3-1.13-3.28-5.06-1.24-6.24"/><path class="cls-3" d="M64.78,33c1.2,2,1.77,3.85-.08,6.06a3.8,3.8,0,0,0,1.8-2.25,5.71,5.71,0,0,1-1.2,2.95c2.74-1.93,1.66-6-.52-6.75"/><path class="cls-4" d="M26.63,13.31A37.64,37.64,0,1,1,11.31,30.57l1.5,1.35A35.7,35.7,0,1,0,28.13,14.65Z"/><path class="cls-8" d="M129.25,14.87l-.83,1.21a44.5,44.5,0,0,0,17.74,9.7q-1.54,2.33-3.08,5.08-2-.71-3.83-1.58V41.85l3.33,3.91-6.46,2.62q3.54,1.42,7.5,3l-2.79,4.71q-8.25-3.87-15.49-6.83c-.05,1.47-.08,2.7-.08,3.67q-10.33,2.16-13.08,3.37l-2.58-4.17a6.62,6.62,0,0,0,1.21-4.12V29.57q-1.54.79-3.12,1.54-1-1.75-3.17-4.75,11.7-4.54,18.62-11.49Zm4.66,15.74H116.14v2.33h17.78Zm0,8.41V36.68H116.14V39Zm-11,9.33-4-1.62,2.16-3.5h-5v6.54Q119.59,49.1,123,48.35Zm-1.33-24.7,5-1.37q.71,1.49,1.71,4.12H134a54,54,0,0,1-8.62-6.75,71,71,0,0,1-9.16,6.75h6.49Q122.22,25,121.63,23.65Zm14.7,19.57H122.59q3.55,1.29,7.75,2.92Q133.34,44.77,136.33,43.23Z"/><path class="cls-8" d="M150,31.23h12.62q1.44-3,2.71-6.25l6.7,1.75-2.46,4.5h21.61v5.24h-7.58a24.62,24.62,0,0,1-5.52,9.41l12,4.54L187,56l-14.18-6.2q-7.08,3.91-20,6-1.71-3.46-3-5.58a72.43,72.43,0,0,0,15.86-3.44q-5.49-2.25-9.87-3.9,2.1-3.1,4-6.46H150ZM166.42,16l6.87-1.37,1.58,4.46h14.78v9.08h-6V24.24h-26V28h-6V19.07h16Q167,17.45,166.42,16ZM164,40.65l8,3a15.9,15.9,0,0,0,4.94-7.12H166.54Q165.21,38.75,164,40.65Z"/><path class="cls-8" d="M235.77,43.69H222.11q5.41,3.93,14.29,5.62-1.79,3.08-2.91,5.45-9.85-3-15.08-8.72v9.81H213V46.12q-5.33,5.2-15,8.72A37.92,37.92,0,0,0,195,49.56a44.4,44.4,0,0,0,13.78-5.87H195.71V38.86H213V36.77h1.29q-.9-1.84-2.71-5.17l3.21-1.19-11,.35q2,2.85,3.67,5.58l-5,2.37q-1.51-2.78-3.54-6l4.49-1.93-4.78.1a32.16,32.16,0,0,0-1.42-5.16q22.66-.25,35.69-1.25.38,1.91.88,5l-4.87.31,4.2,2.77q-3,3.35-5.91,6.33h8.7ZM195.5,17.78h10.33V14.87h5.58v2.91h8.83v-3h5.58v3h10.33v4.83H225.82v1.5h-5.58v-1.5h-8.83v1.66h-5.58V22.61H195.5Zm32.17,12-10.75.52,2.81,5.06-3.41,1.38h2.08v2.08H227l-4-3.16A69.32,69.32,0,0,0,227.67,29.82Z"/><path class="cls-8" d="M240.29,22.11h4.25q.5-3.54,1-7.54l5.62.54q-.5,3.58-1.08,7h6.62q-.21,14-3.41,21.9,3.41,3.12,6.54,5.91l-4,4.62q-2.29-2.58-5.29-5.62A30.86,30.86,0,0,1,243.37,56q-1.5-2.16-3.62-4.66a24.52,24.52,0,0,0,6.75-6.45q-2.49-2.41-5.37-5.12a121.49,121.49,0,0,0,2.63-12.45h-3.46ZM247,38.23q1,1,2.08,1.92a50.53,50.53,0,0,0,2.62-12.79h-2.54Q248.12,33.07,247,38.23Zm10.12,2.83h15.28v5.25H257.11Zm.79-24.65H278l-1.46,15.91h3.58q-.21,8.32-.5,15.37-.08,7.45-6.29,7.66l-8.49.08Q264.56,53,264,49.6q4.12.25,7.24.33a2.38,2.38,0,0,0,2.79-2.54q.17-2.08.37-9.83H257.9l1.5-14.33h5.37l-1,9.08H271l1.13-10.66H257.9Z"/><path class="cls-8" d="M106.5,68.21V66.77h.83l-.94-.94a4.35,4.35,0,0,0,1.55-2.27l1.88.06a.41.41,0,0,1-.06.17,1.8,1.8,0,0,1-.33.66h3.76v1.44h-1.82a6.59,6.59,0,0,1-.06.88h2.21v1.44h-2.21q.94.5,2.16,1.22l-.77,1.05h5.75v6.36h-2v-.55h-6.75v.55h-2V71.09a.18.18,0,0,1-.17.11,8.56,8.56,0,0,0-.83-1.11,2.52,2.52,0,0,1-.33-.39,5.14,5.14,0,0,0,2.6-1.49Zm2.1-2.32a7.25,7.25,0,0,1-.77.88h1.66v-.88ZM112,70.48a8.06,8.06,0,0,0-.83-.55,7.73,7.73,0,0,0-.88-.55,4,4,0,0,1-1.38,1.11ZM109.71,72v.77h6.75V72Zm0,2v.83h6.75v-.83Zm4.2-4.26V64.39h5.31v5.42ZM115.68,66v2.27h1.77V66Z"/><path class="cls-8" d="M130.65,76.51l-.44-.22a9.43,9.43,0,0,0-1.22-.5A14.1,14.1,0,0,0,130,74q.11-.28.17-.39l1.71.55Q131.2,75.45,130.65,76.51ZM136,65.45V64.34h1.88v-.72h1.77v.72H142v1.11h-2.38V66h2.21v.88h-2.21v.55h2.49v1.05h-2.49v.61h1.6v4.31h-4.76a4.41,4.41,0,0,1,.55.77,3.19,3.19,0,0,1,.17.28l-1.6.66q-.39-.83-.88-1.71h-4.81V72.19h9.4v-.55h-8.9v-.83h8.9v-.55H130V69.1h1.71v-.61h-2.43V67.44h2.43v-.55h-2.1V66h2.1v-.55h-2.27V64.34h2.27v-.72h1.77v.72h2v1.11h-2V66h1.83v.88h-1.83v.55h2.1v1.05h-2.1v.61h4.37v-.61h-2V67.44h2v-.55h-1.71V66h1.71v-.55Zm-2.1,11.23q-1.72,0-1.71-1.49V73.85h1.93v.77q-.05.66.83.61h1.71c.59,0,.92-.13,1-.5a3.85,3.85,0,0,1,.22-.83l1.27.5a4.32,4.32,0,0,0,.5.22,5.77,5.77,0,0,1-.39,1.05q-.33,1.05-2,1Zm6.86-.33q-.61-1.11-1.27-2.27l1.72-.61.5.83.83,1.33Z"/><path class="cls-8" d="M152.64,68.76l-.44-1.6q6.25,0,11.72-.22l.44,1.6-2.1.06,1.55.83q-.22.28-.66.77-.72.78-1.16,1.22h2.93v1.66H160.6A12.32,12.32,0,0,0,165.08,75q-.22.33-.66,1.11l-.28.55a11.83,11.83,0,0,1-4.76-2.54v2.77h-2V74.07a11.71,11.71,0,0,1-4.81,2.66,13.37,13.37,0,0,0-.77-1.38.88.88,0,0,1-.17-.22,13.73,13.73,0,0,0,4.48-2h-4.26V71.42h5.53v-.61h.5q-.5-.72-1.05-1.6l1.27-.5h-2.66Q153.57,68.76,152.64,68.76Zm-.89-2.65v-1.6h3.37v-.88h1.94v.88h2.65v-.88h1.94v.88H165v1.6h-3.32v.55h-1.94v-.55h-2.65v.61h-1.94v-.61Zm2.32,5.25a19.62,19.62,0,0,0-1.22-1.77l1.72-.77q.55.78,1.27,1.66Zm5.31-.55v.61h2.43l-1.44-.94q1.05-1.16,1.6-1.88h-1.66c-.74,0-1.29.05-1.66.05q.55.83,1.05,1.55l-1.55.61Z"/><path class="cls-8" d="M174.51,67.11V65.22H180l-.44-1.49,2.38-.17q.17.72.44,1.66h5.2v1.88h-5.48v1.55h4.76v4.59q.11,2.1-1.93,2.1h-2c-.15-.63-.3-1.23-.44-1.83h.72c.37,0,.64.06.83.06.59,0,.87-.24.83-.83V70.48h-2.77v6.36H180V70.48h-2.66v5h-2v-6.8H180V67.11Z"/><path class="cls-8" d="M197.16,69V67h1.16V63.62h2V67h1.05v2h-1.05v4l.94-.28v.11a6.23,6.23,0,0,0,1.55-2.54h-1.22V68.43L206,66h-4V64.23h7.19v2L205,68.54h4.92L209.77,74q.06,2.49-2,2.49a13.6,13.6,0,0,1-1.88.11,3.39,3.39,0,0,1-.11-.55c-.11-.52-.19-.87-.22-1.05a15,15,0,0,1-1.88,1.88,12.29,12.29,0,0,0-1.33-1.44,7.72,7.72,0,0,0,3.21-5.2h-.88a9,9,0,0,1-2.82,4.65l-.44-.55v.39a36.59,36.59,0,0,0-4.15,1l-.33-1.94,1.44-.33V69Zm10.89,1.27h-.72a10.64,10.64,0,0,1-1.66,4.53,2.64,2.64,0,0,0,.77,0h.44q1.05.11,1-1.11.05-.5.11-2.1C208,71,208.06,70.52,208.06,70.26Z"/><path class="cls-8" d="M220.37,76.84l-.78-2.27L221,73.41V70h-1.33V68H223v5.2a3.12,3.12,0,0,0,2.88,1.44q2.93.05,7.24,0l-.61,1.88q-1.33,0-3.54-.05-2.44,0-3.59-.06A3.88,3.88,0,0,1,222.08,75,13.07,13.07,0,0,0,220.37,76.84Zm1.38-9.57c-.48-.88-1.05-1.83-1.72-2.82l1.66-.88q1,1.38,1.88,2.71Zm1.93,2.1V67.6h9.18v1.77H228.5q-1.16,1.61-1.82,2.49l2.93-.11q-.39-.66-.83-1.33l1.6-.77q.55.78,1.55,2.27l.94,1.44-1.77,1-.5-.88-4.37.17a9.33,9.33,0,0,0-1.72.22l-.77-1.71a5.11,5.11,0,0,0,1.22-1,18.29,18.29,0,0,0,1.22-1.77Zm.72-3.32V64.28h7.69v1.77Z"/><path class="cls-8" d="M250.32,66.39v-.5h-2.66v.5h-1.93v-.5h-3.37V64.34h3.37v-.77h1.93v.77h2.66v-.77h1.94v.77h3.32v1.55h-3.32v.5Zm-7.69,3V66.66h12.72v2.71h-1.88v2.71h-9V69.37Zm.77,7.47V72.69h11.11v4.15h-2v-.55H245.4v.55ZM244.62,68v.66h8.68V68Zm.77,6.08V75h7.13v-.88Zm1-4.09v.72h5.14V70Z"/><path class="cls-8" d="M268,72.41a6.16,6.16,0,0,0-.5-.83v5.2h-1.93V67.71h3l-.72-1.11,1.82-.33h-4.65V64.73h5.58l-.33-1,2.38-.17.33,1.16h5.2v1.55h-4.7l1.88.33-.77,1.11h3v6.86a1.71,1.71,0,0,1-2,2l-2,.06a5.13,5.13,0,0,0-.33-1.44h-4.42V71.86Zm-.5-3.21v1.6q1-.66,2.21-1.6Zm6,1.94c-.22-.15-.55-.39-1-.72l-.5-.33.78-.88h-2.43l.89.88-1.38,1.05Zm-3.59-4.87q.44.66.88,1.44h1.6a15.17,15.17,0,0,0,.88-1.44Zm.61,7.58h2.16V72.58h-2.16Zm5.2-4.65h-2.21c.33.19.77.46,1.33.83l.88.55Zm-.44,3.15-.94-.66V75h.55q.88.06.83-.77V71.69Z"/></g></g></svg>